# xmcd CD Database Entry
#
# Track frame offsets:
# 150
# 18352
# 36666
# 53814
# 70068
# 87706
# 105538
# 122373
# 140405
# 155092
# 170726
#
# Disc length: 2452 seconds
#
# Revision: 1
# Processed by: cddbd v1.5.2PL0 Copyright (c) Steve Scherf et al.
# Submitted via: RSJCDWriter_freedb_lib_OS/2 1.03
#
DISCID=9909920b
DTITLE=Jewel - Perfectly Clear
DYEAR=1900
DGENRE=country
TTITLE0=Stronger Woman
TTITLE1=I Do
TTITLE2=Love Is A Garden
TTITLE3=Rosey And Mick
TTITLE4=Anyone But You
TTITLE5=Thump, Thump
TTITLE6=Two Become One
TTITLE7=Till It Feels Like Cheating
TTITLE8=Everything Reminds Me Of You
TTITLE9=Loved By You (Cowboy Waltz)
TTITLE10=Perfectly Clear
EXTD=2008
EXTT0=
EXTT1=
EXTT2=
EXTT3=
EXTT4=
EXTT5=
EXTT6=
EXTT7=
EXTT8=
EXTT9=
EXTT10=
PLAYORDER=
